#tb 0: 1/10
0,          0,          0,        1,   230400, 0x0224ab01
0,          1,          1,        1,   230400, 0x449e4d81
0,          2,          2,        1,   230400, 0x3e15e07a
0,          3,          3,        1,   230400, 0xdabe4172
0,          4,          4,        1,   230400, 0x0947b7db
0,          5,          5,        1,   230400, 0x934e243b
0,          6,          6,        1,   230400, 0x6b5c5b6c
0,          7,          7,        1,   230400, 0x4bf7bbb5
0,          8,          8,        1,   230400, 0x423eec8e
0,          9,          9,        1,   230400, 0x63663b5e
0,         10,         10,        1,   230400, 0x9c258a67
0,         11,         11,        1,   230400, 0x1c92b6e0
0,         12,         12,        1,   230400, 0xdd0a0e28
0,         13,         13,        1,   230400, 0x51d64af1
0,         14,         14,        1,   230400, 0x5776ac12
0,         15,         15,        1,   230400, 0x49070132
0,         16,         16,        1,   230400, 0xa59635ab
0,         17,         17,        1,   230400, 0xb1f99504
0,         18,         18,        1,   230400, 0x61fac725
0,         19,         19,        1,   230400, 0xc32c28d5
0,         20,         20,        1,   230400, 0x2b7a91d6
0,         21,         21,        1,   230400, 0x917be717
0,         22,         22,        1,   230400, 0xd3c5a2ff
0,         23,         23,        1,   230400, 0x0678a707
0,         24,         24,        1,   230400, 0x122504e6
0,         25,         25,        1,   230400, 0x76aebdae
0,         26,         26,        1,   230400, 0x81357545
0,         27,         27,        1,   230400, 0x38baeebd
0,         28,         28,        1,   230400, 0x1c5c44d4
0,         29,         29,        1,   230400, 0x60e189cc
0,         30,         30,        1,   230400, 0xb1f4381c
0,         31,         31,        1,   230400, 0xb5048fed
0,         32,         32,        1,   230400, 0xc947c30e
0,         33,         33,        1,   230400, 0xe8e31c07
0,         34,         34,        1,   230400, 0x6d49dd02
0,         35,         35,        1,   230400, 0x293e15d3
0,         36,         36,        1,   230400, 0x354d792e
0,         37,         37,        1,   230400, 0x35468780
0,         38,         38,        1,   230400, 0x365d3991
0,         39,         39,        1,   230400, 0xc9debef2
0,         40,         40,        1,   230400, 0x4c4634c2
0,         41,         41,        1,   230400, 0x347c2dca
0,         42,         42,        1,   230400, 0x1efa0aaa
0,         43,         43,        1,   230400, 0xa79a0b5a
0,         44,         44,        1,   230400, 0xfdb2dcdb
0,         45,         45,        1,   230400, 0x42dbea33
0,         46,         46,        1,   230400, 0x2a207e43
0,         47,         47,        1,   230400, 0x86573783
0,         48,         48,        1,   230400, 0xc3968473
0,         49,         49,        1,   230400, 0x8f62a7b4
0,         50,         50,        1,   230400, 0x5a2e3073
0,         51,         51,        1,   230400, 0xd24f5e2c
0,         52,         52,        1,   230400, 0x1df3c67d
0,         53,         53,        1,   230400, 0xe4fd884d
0,         57,         57,        1,   230400, 0x9a228555
0,         58,         58,        1,   230400, 0x9eba8ed5
0,         59,         59,        1,   230400, 0x3d808a3d
0,         60,         60,        1,   230400, 0xf57e866d
0,         61,         61,        1,   230400, 0x85f594f5
0,         62,         62,        1,   230400, 0xb09f99dd
0,         63,         63,        1,   230400, 0x2b368475
0,         64,         64,        1,   230400, 0xa2417afd
0,         65,         65,        1,   230400, 0x590b709d
0,         66,         66,        1,   230400, 0x5d617705
0,         67,         67,        1,   230400, 0xabf981ad
0,         68,         68,        1,   230400, 0x5a8590cd
0,         69,         69,        1,   230400, 0x1bff853d
0,         70,         70,        1,   230400, 0x71d08055
0,         71,         71,        1,   230400, 0x2ebd817d
0,         72,         72,        1,   230400, 0x6e838255
0,         73,         73,        1,   230400, 0x043984cd
0,         74,         74,        1,   230400, 0x7ff18495
0,         75,         75,        1,   230400, 0xa43b8385
0,         76,         76,        1,   230400, 0x72b5825d
0,         77,         77,        1,   230400, 0x3a178085
0,         78,         78,        1,   230400, 0x67748245
0,         79,         79,        1,   230400, 0xeddf81d5
0,         80,         80,        1,   230400, 0x8b088665
0,         81,         81,        1,   230400, 0x6c408e15
0,         82,         82,        1,   230400, 0x81f196dd
0,         83,         83,        1,   230400, 0xab9f953d
0,         84,         84,        1,   230400, 0xa5f69795
0,         85,         85,        1,   230400, 0xa772950d
0,         86,         86,        1,   230400, 0x6a5596d5
0,         87,         87,        1,   230400, 0x1355958d
0,         88,         88,        1,   230400, 0x4134981d
0,         89,         89,        1,   230400, 0x8b929515
0,         90,         90,        1,   230400, 0x482f95c5
0,         91,         91,        1,   230400, 0x7a9795d5
0,         92,         92,        1,   230400, 0x21c29abd
0,         93,         93,        1,   230400, 0x9ae6a475
0,         94,         94,        1,   230400, 0x3734aee5
0,         95,         95,        1,   230400, 0xa0a1b365
0,         96,         96,        1,   230400, 0x2dcab1c5
0,         97,         97,        1,   230400, 0x9c8b6c44
0,         98,         98,        1,   230400, 0x5da75feb
0,         99,         99,        1,   230400, 0x4d02f8e3
0,        100,        100,        1,   230400, 0x66824f3a
0,        101,        101,        1,   230400, 0x0c9257e2
0,        102,        102,        1,   230400, 0xb2927092
0,        103,        103,        1,   230400, 0xb5dc6e9a
0,        104,        104,        1,   230400, 0x6e567bc6
0,        105,        105,        1,   230400, 0xbf9e0f7a
0,        106,        106,        1,   230400, 0xb16f684a
0,        107,        107,        1,   230400, 0xf9e55e81
0,        108,        108,        1,   230400, 0xd8d0bcba
0,        109,        109,        1,   230400, 0x44720ac0
0,        110,        110,        1,   230400, 0x7d4c2058
0,        113,        113,        1,   230400, 0xb0973eb9
0,        114,        114,        1,   230400, 0x405a13ce
0,        115,        115,        1,   230400, 0x6422f00a
0,        116,        116,        1,   230400, 0x924b6c1e
0,        145,        145,        1,   230400, 0xcf7809c0
0,        146,        146,        1,   230400, 0x883a3863
0,        147,        147,        1,   230400, 0x6adc9e03
0,        148,        148,        1,   230400, 0x4f5ab7a8
0,        214,        214,        1,   230400, 0xdc0aab94
